# xmcd
#
# Track frame offsets:
#	150
#	14355
#	29123
#	42586
#	57736
#	70546
#	83956
#	95544
#	108039
#	123677
#	137620
#	149433
#	162393
#	176493
#	190053
#	202863
#	216408
#	229766
#	241961
#	254749
#	267049
#	277864
#	289444
#	301677
#	313940
#
# Disc length: 4369 seconds
# Revision: 1
# Processed by: cddbd v1.5.2PL0 Copyright (c) Steve Scherf et al.
# Submitted via: dBpowerAMP V12.0
#
DISCID=7b110f19
DTITLE=Memphis Minnie - Crazy Crying Blues
DYEAR=1930
DGENRE=Blues
TTITLE0=Can I Do It For You
TTITLE1=Bumble Bee
TTITLE2=New Dirty Dozen
TTITLE3=Memphis Minnie-Jitis Blues
TTITLE4=Frankie Jean
TTITLE5=I Called You This Morning
TTITLE6=North Memphis Blues
TTITLE7=What's The Matter With the Mill
TTITLE8=Crazy Crying Blues
TTITLE9=Tricks Ain't Walking
TTITLE10=Soo Cow Soo
TTITLE11=After While Blues
TTITLE12=Joliet Bound
TTITLE13=Where is My Good Man At
TTITLE14=Drunken Barrel House Blues
TTITLE15=You Got To Move
TTITLE16=Let Me Ride
TTITLE17=Me and My Chauffeur
TTITLE18=Finger Print Blues
TTITLE19=Nothing in Rambling
TTITLE20=Pigmeat on the Line
TTITLE21=In My Girlish Days
TTITLE22=Can't Afford to Lose My Man
TTITLE23=Ma Rainey
TTITLE24=Pickin' The Blues
EXTD=
EXTT0=
EXTT1=
EXTT2=
EXTT3=
EXTT4=
EXTT5=
EXTT6=
EXTT7=
EXTT8=
EXTT9=
EXTT10=
EXTT11=
EXTT12=
EXTT13=
EXTT14=
EXTT15=
EXTT16=
EXTT17=
EXTT18=
EXTT19=
EXTT20=
EXTT21=
EXTT22=
EXTT23=
EXTT24=
PLAYORDER=
